# xmcd
# 
# Track frame offsets:
#     150
#     13457
#     30628
#     45240
#     58874
#     75093
#     87606
#     97683
#     110893
#     128769
#     144178
#     158164
#     174109
#     190062
#     208750
#     222953
#     235870
#     249539
# 
# Disc length: 3554
# 
# Revision: 0
# Processed by: cddbd v1.5.2PL0 Copyright (c) Steve Scherf et al.
# Submitted via: fre:ac v1.0.17
# 
DISCID=e80de012
DTITLE=Various Artist - Die grosse Country and Westernparty pres. by Ballermann - CD I
DYEAR=0
DGENRE=Country
TTITLE0=Truck Stop - Der wilde, wilde Westen
TTITLE1=Randy Travis - King Of The Road
TTITLE2=Hermes House Band - Country Roads
TTITLE3=Texas Lightning - No No Never
TTITLE4=DJ Ötzi and The Bellamy Brothers - I Need More Of You
TTITLE5=Johnny Cash - I Walk The Line
TTITLE6=Ralf Paulsen - Bonanza
TTITLE7=Truck Stop - Arizona Arizona
TTITLE8=Schnitte - Sweet Home Alabama
TTITLE9=Terri Clark - I Just Wanna Be Mad
TTITLE10=Dieter Thomas Kuhn - Es hängt ein Pferdehalfter an der Wand
TTITLE11=Truck Stop - Hannas Mann
TTITLE12=Linda Feller - And're Mütter haben auch ein schönes Kind
TTITLE13=DJ Ötzi and The Bellamy Brothers - Islands In The Stream
TTITLE14=Truck Stop - Happy Birthday
TTITLE15=Terri Clark - I Wanna Do It All
TTITLE16=Truck Stop - Bier vom Fass
TTITLE17=Dieter Thomas Kuhn - Desperado
EXTD=
EXTT0=
EXTT1=
EXTT2=
EXTT3=
EXTT4=
EXTT5=
EXTT6=
EXTT7=
EXTT8=
EXTT9=
EXTT10=
EXTT11=
EXTT12=
EXTT13=
EXTT14=
EXTT15=
EXTT16=
EXTT17=
PLAYORDER=
